<svg width="22" height="23" viewBox="0 0 22 23" fill="none" xmlns="http://www.w3.org/2000/svg">
<path fill-rule="evenodd" clip-rule="evenodd" d="M8.6889 2.8097C3.87698 4.09907 1.02242 9.03603 2.30796 13.8336C3.59348 18.6312 8.53402 21.4794 13.346 20.1901C15.2287 19.6857 16.812 18.6231 17.965 17.2279C14.012 17.9259 10.1123 15.502 9.05477 11.5554C8.10431 8.0082 9.75745 4.37809 12.841 2.68354C11.5087 2.40928 10.0936 2.43332 8.6889 2.8097ZM0.376803 14.351C-1.19548 8.4833 2.29663 2.45271 8.17149 0.878548C11.0414 0.109545 13.9522 0.546561 16.3596 1.87772L15.9864 3.74603C15.696 3.77834 15.4038 3.83295 15.1116 3.91121C11.9998 4.74501 10.155 7.9371 10.9859 11.038C11.8167 14.1389 15.0105 15.9809 18.1223 15.147C18.7156 14.988 19.2612 14.7441 19.7508 14.4324L21.2125 15.6551C19.9531 18.7239 17.3213 21.1947 13.8634 22.1213C7.98862 23.6954 1.94908 20.2189 0.376803 14.351Z" fill="#22A3B4"/>
</svg>
