<svg width="335" height="363" viewBox="0 0 335 363" fill="none" xmlns="http://www.w3.org/2000/svg">
<path fill-rule="evenodd" clip-rule="evenodd" d="M39.715 248.897V35.0011C39.715 22.1673 41.6618 13.6115 46.3341 9.72254C51.0065 5.83351 59.1831 2.72232 70.864 0.777815V0H0V0.777815C5.45108 2.3334 9.73406 4.66682 13.6277 7.38912C17.5213 10.5003 19.4681 17.1117 19.4681 27.2231V225.563C19.4681 236.063 17.5213 242.674 13.6277 245.397C9.73406 248.508 5.45108 250.452 0 252.008V252.786H139.197V363H161.763V252.75L253.068 253.078C270.658 253.078 285.471 250.188 297.506 244.409C309.772 238.63 319.03 230.308 325.279 219.443C331.76 208.578 335 195.979 335 181.646C335 166.389 331.528 153.443 324.585 142.809C317.873 132.176 308.384 124.085 296.117 118.537C283.851 112.988 269.501 110.214 253.068 110.214H139.197V232.818C136.437 235.729 133.651 238.112 130.826 239.952C121.87 246.174 109.411 248.897 93.8364 248.897H39.715ZM161.763 232.273H248.902C269.501 232.273 285.008 228.112 295.423 219.789C305.838 211.467 311.045 198.637 311.045 181.299C311.045 165.58 306.069 153.443 296.117 144.89C286.396 136.337 270.658 132.06 248.902 132.06H161.763V232.273Z" fill="black"/>
</svg>
