<?xml version="1.0" standalone="no"?>
<!DOCTYPE svg PUBLIC "-//W3C//DTD SVG 20010904//EN"
 "http://www.w3.org/TR/2001/REC-SVG-20010904/DTD/svg10.dtd">
<svg version="1.0" xmlns="http://www.w3.org/2000/svg"
 width="2099.000000pt" height="2099.000000pt" viewBox="0 0 2099.000000 2099.000000"
 preserveAspectRatio="xMidYMid meet">

<g transform="translate(0.000000,2099.000000) scale(0.100000,-0.100000)"
fill="hsl(0, 0%, 50%)" stroke="none">
<path d="M7636 20979 c-926 -16 -1766 -57 -2226 -110 -960 -110 -1810 -370
-2530 -776 -150 -85 -456 -289 -593 -396 -368 -288 -786 -713 -1052 -1072
-599 -805 -975 -1834 -1114 -3045 -55 -480 -93 -1264 -111 -2310 -13 -720 -13
-4830 0 -5550 13 -754 45 -1559 76 -1945 74 -927 242 -1645 553 -2373 156
-365 361 -722 596 -1037 266 -359 684 -784 1052 -1072 137 -107 443 -311 593
-396 721 -406 1568 -666 2530 -776 478 -55 1267 -93 2310 -111 720 -13 4830
-13 5550 0 1046 18 1831 56 2310 111 958 110 1812 372 2530 776 150 85 456
289 593 396 368 288 786 713 1052 1072 598 804 976 1835 1114 3045 40 345 61
694 91 1485 22 590 30 1476 30 3600 0 2124 -8 3010 -30 3600 -30 791 -51 1140
-91 1485 -139 1210 -516 2241 -1114 3045 -266 359 -684 784 -1052 1072 -137
107 -443 311 -593 396 -632 356 -1387 607 -2195 731 -566 87 -1344 133 -2645
156 -636 11 -4975 11 -5634 -1z m5869 -1899 c695 -17 1370 -47 1685 -76 1039
-95 1858 -390 2440 -877 379 -317 682 -689 882 -1082 307 -605 466 -1281 518
-2205 55 -981 63 -1578 63 -4345 0 -2767 -8 -3364 -63 -4345 -52 -924 -211
-1600 -518 -2205 -200 -393 -503 -765 -882 -1082 -450 -376 -1079 -653 -1790
-787 -498 -95 -1066 -135 -2375 -168 -646 -16 -5294 -16 -5940 0 -1309 33
-1877 73 -2375 168 -711 134 -1340 411 -1790 787 -379 317 -682 689 -882 1082
-307 605 -466 1281 -518 2205 -55 982 -64 1578 -64 4345 0 2767 9 3363 64
4345 52 924 211 1600 518 2205 200 393 503 765 882 1082 450 376 1081 654
1790 787 382 72 703 104 1315 131 686 30 977 37 1790 45 1056 10 4696 3 5250
-10z"/>
<path d="M15936 17349 c-477 -62 -882 -396 -1036 -857 -100 -300 -74 -675 67
-957 115 -228 340 -453 568 -568 282 -141 657 -167 957 -67 467 157 797 560
857 1050 37 295 -39 601 -212 860 -64 96 -231 263 -327 327 -261 175 -573 250
-874 212z"/>
<path d="M10218 15879 c-1195 -62 -2330 -517 -3243 -1300 -154 -132 -432 -410
-564 -564 -650 -758 -1077 -1671 -1236 -2646 -131 -805 -80 -1623 150 -2403
215 -728 585 -1407 1086 -1991 132 -154 410 -432 564 -564 758 -650 1671
-1077 2646 -1236 805 -131 1623 -80 2403 150 728 215 1407 585 1991 1086 154
132 432 410 564 564 650 758 1077 1671 1236 2646 95 583 95 1165 0 1748 -159
975 -586 1888 -1236 2646 -132 154 -410 432 -564 564 -584 501 -1263 871
-1991 1086 -586 173 -1199 246 -1806 214z m702 -1913 c675 -88 1275 -345 1799
-773 136 -112 362 -338 474 -474 388 -475 648 -1042 746 -1624 38 -228 46
-326 46 -600 0 -343 -25 -557 -100 -855 -271 -1074 -1045 -1965 -2074 -2385
-287 -117 -595 -195 -941 -237 -138 -17 -612 -17 -750 0 -620 76 -1144 274
-1634 617 -322 225 -626 529 -851 851 -298 425 -501 915 -584 1409 -38 228
-46 326 -46 600 0 274 8 372 46 600 151 898 681 1732 1435 2260 489 343 1058
557 1629 614 61 6 126 13 145 15 84 10 542 -3 660 -18z"/>
</g>
</svg>
