<svg width="25" height="25" viewBox="0 0 25 25" fill="none" xmlns="http://www.w3.org/2000/svg">
<path fill-rule="evenodd" clip-rule="evenodd" d="M16.7339 12.5C16.7339 14.8382 14.8382 16.7339 12.5 16.7339C10.1618 16.7339 8.26611 14.8382 8.26611 12.5C8.26611 10.1618 10.1618 8.26611 12.5 8.26611C14.8382 8.26611 16.7339 10.1618 16.7339 12.5Z" stroke="hsl(0, 0%, 50%)" stroke-width="2" stroke-linecap="round" stroke-linejoin="round"/>
<path d="M23.7903 13.7097C24.4584 13.7097 25 13.1681 25 12.5C25 11.8319 24.4584 11.2903 23.7903 11.2903V13.7097ZM20.9677 11.2903C20.2997 11.2903 19.7581 11.8319 19.7581 12.5C19.7581 13.1681 20.2997 13.7097 20.9677 13.7097V11.2903ZM4.03226 13.7097C4.70034 13.7097 5.24194 13.1681 5.24194 12.5C5.24194 11.8319 4.70034 11.2903 4.03226 11.2903V13.7097ZM1.20968 11.2903C0.541597 11.2903 0 11.8319 0 12.5C0 13.1681 0.541597 13.7097 1.20968 13.7097V11.2903ZM13.7097 1.20968C13.7097 0.541597 13.1681 0 12.5 0C11.8319 0 11.2903 0.541597 11.2903 1.20968H13.7097ZM11.2903 4.03226C11.2903 4.70034 11.8319 5.24194 12.5 5.24194C13.1681 5.24194 13.7097 4.70034 13.7097 4.03226H11.2903ZM13.7097 20.9677C13.7097 20.2997 13.1681 19.7581 12.5 19.7581C11.8319 19.7581 11.2903 20.2997 11.2903 20.9677H13.7097ZM11.2903 23.7903C11.2903 24.4584 11.8319 25 12.5 25C13.1681 25 13.7097 24.4584 13.7097 23.7903H11.2903ZM21.3392 5.3715C21.8116 4.8991 21.8116 4.13316 21.3392 3.66076C20.8668 3.18835 20.101 3.18835 19.6285 3.66076L21.3392 5.3715ZM17.6318 5.65753C17.1594 6.12994 17.1594 6.89587 17.6318 7.36827C18.1042 7.84068 18.87 7.84068 19.3424 7.36827L17.6318 5.65753ZM7.36827 19.3424C7.84068 18.87 7.84068 18.1042 7.36827 17.6318C6.89587 17.1594 6.12994 17.1594 5.65753 17.6318L7.36827 19.3424ZM3.66076 19.6285C3.18835 20.101 3.18835 20.8668 3.66076 21.3392C4.13316 21.8116 4.8991 21.8116 5.3715 21.3392L3.66076 19.6285ZM5.3715 3.66076C4.8991 3.18835 4.13316 3.18835 3.66076 3.66076C3.18835 4.13316 3.18835 4.8991 3.66076 5.3715L5.3715 3.66076ZM5.65753 7.36827C6.12994 7.84068 6.89587 7.84068 7.36827 7.36827C7.84068 6.89587 7.84068 6.12994 7.36827 5.65753L5.65753 7.36827ZM19.344 17.6334C18.8716 17.161 18.1058 17.161 17.6334 17.6334C17.161 18.1058 17.161 18.8716 17.6334 19.344L19.344 17.6334ZM19.6285 21.3392C20.101 21.8116 20.8668 21.8116 21.3392 21.3392C21.8116 20.8668 21.8116 20.101 21.3392 19.6285L19.6285 21.3392ZM23.7903 11.2903H20.9677V13.7097H23.7903V11.2903ZM4.03226 11.2903H1.20968V13.7097H4.03226V11.2903ZM11.2903 1.20968V4.03226H13.7097V1.20968H11.2903ZM11.2903 20.9677V23.7903H13.7097V20.9677H11.2903ZM19.6285 3.66076L17.6318 5.65753L19.3424 7.36827L21.3392 5.3715L19.6285 3.66076ZM5.65753 17.6318L3.66076 19.6285L5.3715 21.3392L7.36827 19.3424L5.65753 17.6318ZM3.66076 5.3715L5.65753 7.36827L7.36827 5.65753L5.3715 3.66076L3.66076 5.3715ZM17.6334 19.344L19.6285 21.3392L21.3392 19.6285L19.344 17.6334L17.6334 19.344Z" fill="hsl(0, 0%, 50%)"/>
</svg>
