<svg width="336" height="423" viewBox="0 0 336 423" fill="none" xmlns="http://www.w3.org/2000/svg">
<path fill-rule="evenodd" clip-rule="evenodd" d="M0 0V300H122V422.14H179.78V300L234.564 299.997C273.084 299.997 296.196 290.569 312.46 273.426C327.44 257.997 336 234.854 336 211.283C336 187.711 327.44 164.569 312.46 149.14C295.768 131.569 273.084 122.14 234.564 122.14H122V248.571H57.7674V0H0ZM231.996 248.569H179.78V173.569H231.996C251.684 173.569 261.528 178.283 268.376 185.569C274.796 192.426 278.22 201.426 278.22 211.283C278.22 221.14 274.796 229.711 268.376 236.569C261.528 243.854 251.684 248.569 231.996 248.569Z" fill="hsl(0, 0%, 80%)"/>
</svg>
